<svg width="24" height="25" viewBox="0 0 24 25" fill="none" xmlns="http://www.w3.org/2000/svg">
<path d="M24 0.0297852V19.6661H20.7273V18.5752H22.9091V1.12069H1.09091V18.5752H9.81818V19.6661H0V0.0297852H24ZM16.3636 2.2116H7.63636V3.30251H16.3636V2.2116ZM14.1818 5.48433V4.39342H9.81818V5.48433H14.1818ZM6.54545 10.9389H2.18182V12.0298H6.54545V10.9389ZM6.54545 13.1207H2.18182V14.2116H6.54545V13.1207ZM2.18182 16.3934H4.36364V15.3025H2.18182V16.3934ZM17.4545 13.1207C17.4545 13.5522 17.3266 13.974 17.0868 14.3328C16.8471 14.6916 16.5063 14.9713 16.1077 15.1364C15.709 15.3016 15.2703 15.3448 14.8471 15.2606C14.4238 15.1764 14.0351 14.9686 13.7299 14.6635C13.4248 14.3583 13.217 13.9696 13.1328 13.5463C13.0486 13.1231 13.0919 12.6844 13.257 12.2857C13.4221 11.8871 13.7018 11.5463 14.0606 11.3066C14.4194 11.0668 14.8412 10.9389 15.2727 10.9389C15.8512 10.9395 16.4058 11.1695 16.8149 11.5786C17.2239 11.9876 17.454 12.5422 17.4545 13.1207ZM16.3636 13.1207C16.3636 12.9049 16.2997 12.694 16.1798 12.5146C16.0599 12.3352 15.8895 12.1954 15.6902 12.1128C15.4909 12.0303 15.2715 12.0087 15.0599 12.0507C14.8483 12.0928 14.6539 12.1967 14.5013 12.3493C14.3488 12.5019 14.2449 12.6963 14.2028 12.9079C14.1607 13.1195 14.1823 13.3388 14.2649 13.5382C14.3474 13.7375 14.4873 13.9079 14.6667 14.0278C14.846 14.1476 15.057 14.2116 15.2727 14.2116C15.562 14.2113 15.8393 14.0963 16.0438 13.8918C16.2483 13.6872 16.3633 13.4099 16.3636 13.1207ZM16.3658 8.43742C16.415 8.57588 16.4927 8.70249 16.5938 8.80913C16.6949 8.91576 16.8172 9.00005 16.9528 9.05656C17.0885 9.11308 17.2345 9.14057 17.3814 9.13728C17.5283 9.13398 17.6729 9.09997 17.8058 9.03742C18.0231 8.93587 18.2663 8.90308 18.5028 8.94344C18.7392 8.98379 18.9577 9.09536 19.1291 9.26324C19.2987 9.43278 19.4118 9.65063 19.4528 9.88694C19.4938 10.1232 19.4608 10.3665 19.3582 10.5832C19.295 10.7163 19.2605 10.8611 19.2567 11.0084C19.253 11.1556 19.2802 11.302 19.3365 11.4381C19.3928 11.5742 19.4771 11.697 19.5838 11.7985C19.6905 11.9001 19.8173 11.9781 19.956 12.0276C20.1814 12.1081 20.3765 12.2564 20.5144 12.4521C20.6523 12.6478 20.7263 12.8813 20.7263 13.1207C20.7263 13.3601 20.6523 13.5936 20.5144 13.7893C20.3765 13.985 20.1814 14.1333 19.956 14.2138C19.8172 14.2631 19.6903 14.3409 19.5835 14.4423C19.4767 14.5437 19.3923 14.6663 19.3359 14.8024C19.2794 14.9384 19.2522 15.0847 19.2558 15.232C19.2595 15.3792 19.294 15.524 19.3571 15.6571C19.4341 15.815 19.4738 15.9886 19.4729 16.1643C19.4721 16.3401 19.4309 16.5133 19.3524 16.6705C19.274 16.8278 19.1604 16.9649 19.0204 17.0712C18.8805 17.1775 18.718 17.2502 18.5455 17.2836V24.9701L15.2727 22.2014L12 24.9701V17.2836C11.8276 17.2501 11.6652 17.1774 11.5254 17.0712C11.3856 16.965 11.2721 16.828 11.1936 16.6709C11.1152 16.5138 11.0739 16.3407 11.073 16.1651C11.0721 15.9895 11.1116 15.8161 11.1884 15.6581C11.2517 15.525 11.2863 15.3801 11.2901 15.2328C11.2938 15.0854 11.2666 14.9389 11.2101 14.8028C11.1537 14.6666 11.0692 14.5438 10.9623 14.4424C10.8554 14.3409 10.7284 14.263 10.5895 14.2138C10.364 14.1333 10.169 13.985 10.0311 13.7893C9.89318 13.5936 9.81916 13.3601 9.81916 13.1207C9.81916 12.8813 9.89318 12.6478 10.0311 12.4521C10.169 12.2564 10.364 12.1081 10.5895 12.0276C10.7283 11.9782 10.8552 11.9003 10.962 11.7988C11.0688 11.6973 11.1532 11.5745 11.2096 11.4384C11.2661 11.3023 11.2933 11.1559 11.2897 11.0086C11.286 10.8613 11.2515 10.7164 11.1884 10.5832C11.0856 10.3666 11.0524 10.1234 11.0932 9.88711C11.134 9.65081 11.2469 9.43291 11.4164 9.26324C11.5877 9.09577 11.8061 8.98454 12.0424 8.94439C12.2786 8.90424 12.5215 8.93707 12.7385 9.03851C12.8716 9.10103 13.0162 9.135 13.1632 9.13822C13.3102 9.14145 13.4562 9.11386 13.5918 9.05724C13.7275 9.00061 13.8498 8.91621 13.9508 8.80946C14.0519 8.7027 14.1294 8.57597 14.1785 8.43742C14.2588 8.2116 14.4071 8.01618 14.6029 7.87799C14.7987 7.73979 15.0325 7.6656 15.2722 7.6656C15.5119 7.6656 15.7456 7.73979 15.9415 7.87799C16.1373 8.01618 16.2855 8.2116 16.3658 8.43742ZM17.4545 22.6192V17.1211C17.2223 17.0916 16.987 17.1434 16.7885 17.2677C16.5901 17.392 16.4407 17.5811 16.3658 17.8029C16.2853 18.0283 16.137 18.2234 15.9413 18.3612C15.7457 18.4991 15.5121 18.5732 15.2727 18.5732C15.0333 18.5732 14.7998 18.4991 14.6041 18.3612C14.4084 18.2234 14.2602 18.0283 14.1796 17.8029C14.1047 17.5811 13.9554 17.392 13.7569 17.2677C13.5585 17.1434 13.3232 17.0916 13.0909 17.1211V22.6181L15.2727 20.7723L17.4545 22.6192ZM15.3382 17.4385C15.4866 17.0211 15.7606 16.6598 16.1225 16.4044C16.4845 16.1489 16.9166 16.0117 17.3596 16.0116C17.6877 16.0151 18.0112 16.0884 18.3087 16.2265L18.372 16.1272C18.2431 15.8564 18.1724 15.5615 18.1647 15.2617C18.1569 14.9618 18.2122 14.6637 18.327 14.3865C18.4417 14.1094 18.6134 13.8594 18.8309 13.6528C19.0484 13.4462 19.3068 13.2876 19.5895 13.1872V13.0541C19.307 12.9535 19.0488 12.7947 18.8315 12.5881C18.6142 12.3814 18.4427 12.1315 18.328 11.8545C18.2132 11.5774 18.1579 11.2794 18.1655 10.9796C18.173 10.6799 18.2434 10.385 18.372 10.1141L18.2771 10.0225C18.0062 10.1511 17.7114 10.2214 17.4116 10.2289C17.1119 10.2364 16.8139 10.1809 16.5369 10.0661C16.26 9.95125 16.0102 9.77958 15.8037 9.56218C15.5972 9.34478 15.4386 9.08648 15.3382 8.80397H15.2073C15.1068 9.08648 14.9483 9.34478 14.7418 9.56218C14.5353 9.77958 14.2855 9.95125 14.0085 10.0661C13.7315 10.1809 13.4336 10.2364 13.1338 10.2289C12.8341 10.2214 12.5392 10.1511 12.2684 10.0225L12.1735 10.1141C12.302 10.385 12.3724 10.6799 12.38 10.9796C12.3876 11.2794 12.3322 11.5774 12.2175 11.8545C12.1028 12.1315 11.9312 12.3814 11.7139 12.5881C11.4967 12.7947 11.2385 12.9535 10.956 13.0541V13.1872C11.2387 13.2876 11.4971 13.4462 11.7146 13.6528C11.9321 13.8594 12.1037 14.1094 12.2185 14.3865C12.3333 14.6637 12.3886 14.9618 12.3808 15.2617C12.373 15.5615 12.3024 15.8564 12.1735 16.1272L12.2367 16.2254C12.5344 16.0877 12.8579 16.0148 13.1858 16.0116C13.6288 16.0117 14.061 16.1489 14.4229 16.4044C14.7849 16.6598 15.0588 17.0211 15.2073 17.4385L15.2727 17.4843L15.3382 17.4385Z" fill="#F7F7F7"/>
</svg>
