<svg width="19" height="18" viewBox="0 0 19 18" fill="currentColor" xmlns="http://www.w3.org/2000/svg">
<path d="M2 7.50033V10.5003C2 12.0003 2.75 12.7503 4.25 12.7503H5.3225C5.6 12.7503 5.8775 12.8328 6.1175 12.9753L8.3075 14.3478C10.1975 15.5328 11.75 14.6703 11.75 12.4428V5.55783C11.75 3.32283 10.1975 2.46783 8.3075 3.65283L6.1175 5.02533C5.8775 5.16783 5.6 5.25033 5.3225 5.25033H4.25C2.75 5.25033 2 6.00033 2 7.50033Z" stroke="currentColor" stroke-width="1.5"/>
<path d="M14 6C15.335 7.7775 15.335 10.2225 14 12" stroke="currentColor" stroke-width="1.5" stroke-linecap="round" stroke-linejoin="round"/>
<path d="M15.3725 4.125C17.54 7.0125 17.54 10.9875 15.3725 13.875" stroke="currentColor" stroke-width="1.5" stroke-linecap="round" stroke-linejoin="round"/>
</svg>
